<svg width="482" height="406" viewBox="0 0 482 406" fill="none" xmlns="http://www.w3.org/2000/svg">
<path d="M38.9842 26.5932V28.6395H36.4644V32.0386C36.4644 32.4445 36.5602 32.7376 36.7519 32.918C36.9548 33.0871 37.2311 33.1717 37.5806 33.1717C37.8511 33.1717 38.0823 33.1435 38.2739 33.0871C38.4656 33.0195 38.646 32.9237 38.8151 32.7996L39.1195 34.5753C38.8376 34.767 38.4768 34.9248 38.0372 35.0488C37.6087 35.1616 37.1747 35.2179 36.735 35.2179C35.7654 35.2179 34.9988 35.015 34.4351 34.6091C33.8826 34.192 33.6008 33.493 33.5895 32.5122V28.6395H32.1352V26.5932H33.5895V24.6992L36.4644 23.9044V26.5932H38.9842ZM40.3121 35.0488V26.5932H42.8488L42.9672 28.4196C43.1701 27.7996 43.4801 27.3148 43.8973 26.9653C44.3257 26.6045 44.8725 26.4241 45.5377 26.4241C45.7519 26.4241 45.9323 26.4467 46.0788 26.4918C46.2367 26.5256 46.3607 26.565 46.4509 26.6101L46.1634 28.9777C46.0506 28.9439 45.9041 28.9101 45.7237 28.8762C45.5546 28.8424 45.346 28.8255 45.098 28.8255C44.5794 28.8255 44.1284 28.989 43.7451 29.3159C43.373 29.6429 43.187 30.1333 43.187 30.7872V35.0488H40.3121ZM50.4366 35.2179C49.5798 35.2179 48.8808 34.9868 48.3396 34.5246C47.7985 34.0623 47.5279 33.3013 47.5279 32.2416V26.5932H50.4028V31.5651C50.4028 32.1063 50.5099 32.484 50.7241 32.6982C50.9383 32.9124 51.2427 33.0195 51.6373 33.0195C52.0432 33.0195 52.387 32.8729 52.6689 32.5798C52.962 32.2754 53.1086 31.7906 53.1086 31.1254V26.5932H55.9835V35.0488H53.413L53.3284 33.4592C53.0579 34.0567 52.6802 34.502 52.1954 34.7952C51.7106 35.077 51.1243 35.2179 50.4366 35.2179ZM58.049 35.0488V26.5932H60.6195L60.7041 28.3013C60.9634 27.6812 61.3411 27.2133 61.8371 26.8976C62.3332 26.582 62.9195 26.4241 63.5959 26.4241C64.464 26.4241 65.1686 26.6778 65.7098 27.1851C66.251 27.6925 66.5215 28.4366 66.5215 29.4174V35.0488H63.6466V30.1784C63.6466 29.5922 63.5339 29.1863 63.3084 28.9608C63.0829 28.7353 62.7954 28.6226 62.4459 28.6226C62.0288 28.6226 61.668 28.7691 61.3636 29.0623C61.0705 29.3554 60.9239 29.8571 60.9239 30.5674V35.0488H58.049ZM71.4109 23.0081V30.1446L74.624 26.5932H77.8202L74.7085 29.9078L78.0062 35.0488H74.8269L72.7807 31.582L71.4109 33.104V35.0488H68.536V23.0081H71.4109Z" fill="black"/>
<rect x="53.552" y="53.6016" width="2.81853" height="352.316" fill="#EFEFF1"/>
<path d="M155.717 6.59324V7.76011H152.893V15.0488H151.54V7.76011H149.849V6.59324H151.54V5.17269C151.54 4.41733 151.771 3.80289 152.233 3.32938C152.696 2.85586 153.389 2.61911 154.314 2.61911C154.607 2.61911 154.883 2.65293 155.142 2.72057C155.402 2.78822 155.604 2.88405 155.751 3.00806L155.396 4.10729C155.125 3.93818 154.804 3.85362 154.432 3.85362C153.947 3.85362 153.569 3.972 153.299 4.20876C153.028 4.43424 152.893 4.80065 152.893 5.30798V6.59324H155.717ZM160.823 15.2179C160.022 15.2179 159.306 15.0432 158.675 14.6937C158.055 14.3442 157.57 13.8425 157.221 13.1886C156.871 12.5234 156.696 11.7342 156.696 10.821C156.696 9.90783 156.871 9.12428 157.221 8.47038C157.57 7.8052 158.049 7.29787 158.658 6.94837C159.267 6.59887 159.96 6.42412 160.738 6.42412C161.527 6.42412 162.198 6.59323 162.751 6.93146C163.314 7.26968 163.743 7.73192 164.036 8.31818C164.329 8.89316 164.476 9.54142 164.476 10.263C164.476 10.4546 164.47 10.6294 164.459 10.7872C164.447 10.945 164.43 11.086 164.408 11.21H158.032C158.1 12.1006 158.376 12.794 158.861 13.2901C159.346 13.7861 159.988 14.0342 160.789 14.0342C161.409 14.0342 161.911 13.9158 162.294 13.679C162.689 13.4423 163.004 13.121 163.241 12.7151L164.306 13.3408C163.991 13.9158 163.534 14.3724 162.937 14.7106C162.35 15.0488 161.646 15.2179 160.823 15.2179ZM160.704 7.60791C159.994 7.60791 159.408 7.82211 158.946 8.25053C158.495 8.66767 158.207 9.25393 158.083 10.0093H163.123C163.089 9.24265 162.852 8.65076 162.412 8.23362C161.973 7.81648 161.403 7.60791 160.704 7.60791ZM171.987 9.58651C171.987 8.95516 171.818 8.47038 171.479 8.13215C171.141 7.78265 170.662 7.60791 170.042 7.60791C169.456 7.60791 168.96 7.73756 168.554 7.99686C168.148 8.24489 167.849 8.65076 167.657 9.21447L166.558 8.53802C166.784 7.90667 167.201 7.39933 167.81 7.01601C168.418 6.62142 169.174 6.42412 170.076 6.42412C170.685 6.42412 171.237 6.53123 171.733 6.74544C172.229 6.94837 172.618 7.26404 172.9 7.69246C173.193 8.1096 173.34 8.65076 173.34 9.31594V13.4084C173.34 13.8143 173.554 14.0172 173.982 14.0172C174.196 14.0172 174.405 13.9891 174.608 13.9327L174.54 14.9981C174.315 15.1108 174.022 15.1672 173.661 15.1672C173.244 15.1672 172.883 15.0657 172.579 14.8628C172.285 14.6599 172.094 14.3498 172.004 13.9327C171.71 14.3724 171.31 14.6993 170.803 14.9135C170.296 15.1165 169.794 15.2179 169.298 15.2179C168.802 15.2179 168.339 15.1334 167.911 14.9643C167.483 14.7952 167.139 14.5415 166.879 14.2033C166.631 13.8538 166.507 13.4254 166.507 12.918C166.507 12.2867 166.716 11.7681 167.133 11.3622C167.562 10.945 168.153 10.6632 168.909 10.5166L171.987 9.90783V9.58651ZM167.894 12.8504C167.894 13.1999 168.029 13.4874 168.3 13.7128C168.582 13.9271 168.976 14.0342 169.484 14.0342C169.924 14.0342 170.329 13.9609 170.701 13.8143C171.085 13.6565 171.395 13.4254 171.632 13.121C171.868 12.8053 171.987 12.405 171.987 11.9203V11.024L169.535 11.5313C168.982 11.644 168.571 11.8019 168.3 12.0048C168.029 12.2077 167.894 12.4896 167.894 12.8504ZM181.37 6.59324V7.76011H178.292V12.7151C178.292 13.1322 178.411 13.4423 178.648 13.6452C178.884 13.8481 179.189 13.9496 179.561 13.9496C179.888 13.9496 180.17 13.8932 180.406 13.7805C180.643 13.6677 180.857 13.5155 181.049 13.3239L181.522 14.4569C181.263 14.6937 180.953 14.8797 180.592 15.015C180.243 15.1503 179.837 15.2179 179.375 15.2179C178.946 15.2179 178.546 15.1447 178.174 14.9981C177.802 14.8403 177.503 14.5979 177.278 14.2709C177.064 13.9327 176.951 13.493 176.94 12.9518V7.76011H175.248V6.59324H176.94V4.56389L178.292 4.19185V6.59324H181.37ZM186.443 15.2179C185.902 15.2179 185.389 15.1165 184.904 14.9135C184.43 14.7106 184.041 14.3837 183.737 13.9327C183.444 13.4705 183.297 12.8729 183.297 12.1401V6.59324H184.65V11.785C184.65 12.6418 184.836 13.2337 185.208 13.5606C185.58 13.8763 186.104 14.0342 186.781 14.0342C187.209 14.0342 187.615 13.9383 187.999 13.7467C188.382 13.5437 188.698 13.2337 188.946 12.8166C189.194 12.3994 189.318 11.8583 189.318 11.1931V6.59324H190.67V15.0488H189.487L189.402 13.7636C189.109 14.2709 188.709 14.643 188.201 14.8797C187.705 15.1052 187.119 15.2179 186.443 15.2179ZM193.819 15.0488V6.59324H194.918L195.104 7.97995C195.578 6.94273 196.48 6.42412 197.81 6.42412C197.957 6.42412 198.115 6.4354 198.284 6.45795C198.464 6.48049 198.616 6.52559 198.74 6.59324L198.504 7.82775C198.38 7.78265 198.244 7.74883 198.098 7.72628C197.951 7.70374 197.743 7.69246 197.472 7.69246C197.122 7.69246 196.767 7.79393 196.407 7.99686C196.057 8.1998 195.764 8.50984 195.527 8.92698C195.29 9.33285 195.172 9.85146 195.172 10.4828V15.0488H193.819ZM203.993 15.2179C203.192 15.2179 202.476 15.0432 201.845 14.6937C201.225 14.3442 200.74 13.8425 200.39 13.1886C200.041 12.5234 199.866 11.7342 199.866 10.821C199.866 9.90783 200.041 9.12428 200.39 8.47038C200.74 7.8052 201.219 7.29787 201.828 6.94837C202.437 6.59887 203.13 6.42412 203.908 6.42412C204.697 6.42412 205.368 6.59323 205.92 6.93146C206.484 7.26968 206.913 7.73192 207.206 8.31818C207.499 8.89316 207.645 9.54142 207.645 10.263C207.645 10.4546 207.64 10.6294 207.628 10.7872C207.617 10.945 207.6 11.086 207.578 11.21H201.202C201.27 12.1006 201.546 12.794 202.031 13.2901C202.516 13.7861 203.158 14.0342 203.959 14.0342C204.579 14.0342 205.08 13.9158 205.464 13.679C205.858 13.4423 206.174 13.121 206.411 12.7151L207.476 13.3408C207.161 13.9158 206.704 14.3724 206.106 14.7106C205.52 15.0488 204.816 15.2179 203.993 15.2179ZM203.874 7.60791C203.164 7.60791 202.578 7.82211 202.115 8.25053C201.664 8.66767 201.377 9.25393 201.253 10.0093H206.292C206.259 9.24265 206.022 8.65076 205.582 8.23362C205.143 7.81648 204.573 7.60791 203.874 7.60791ZM156.064 35.2179C155.422 35.2179 154.847 35.0657 154.339 34.7613C153.832 34.4569 153.449 34.0567 153.189 33.5606L153.105 35.0488H151.921V22.7037H153.274V27.9123C153.544 27.4726 153.922 27.1175 154.407 26.8469C154.903 26.565 155.461 26.4241 156.081 26.4241C156.78 26.4241 157.423 26.5989 158.009 26.9484C158.595 27.2979 159.063 27.7996 159.413 28.4535C159.762 29.1074 159.937 29.8966 159.937 30.821C159.937 31.7342 159.757 32.5234 159.396 33.1886C159.046 33.8425 158.578 34.3442 157.992 34.6937C157.406 35.0432 156.763 35.2179 156.064 35.2179ZM155.929 34.0342C156.763 34.0342 157.412 33.741 157.874 33.1548C158.347 32.5685 158.584 31.7906 158.584 30.821C158.584 29.8515 158.353 29.0735 157.891 28.4873C157.428 27.901 156.78 27.6079 155.946 27.6079C155.157 27.6079 154.514 27.9067 154.018 28.5042C153.522 29.1017 153.274 29.8853 153.274 30.8549C153.274 31.8244 153.516 32.5967 154.001 33.1717C154.497 33.7467 155.14 34.0342 155.929 34.0342ZM162.524 35.0488V26.5932H163.623L163.809 27.98C164.282 26.9427 165.184 26.4241 166.515 26.4241C166.661 26.4241 166.819 26.4354 166.988 26.4579C167.168 26.4805 167.321 26.5256 167.445 26.5932L167.208 27.8278C167.084 27.7827 166.949 27.7488 166.802 27.7263C166.656 27.7037 166.447 27.6925 166.176 27.6925C165.827 27.6925 165.472 27.7939 165.111 27.9969C164.761 28.1998 164.468 28.5098 164.232 28.927C163.995 29.3328 163.876 29.8515 163.876 30.4828V35.0488H162.524ZM174.134 29.5865C174.134 28.9552 173.964 28.4704 173.626 28.1322C173.288 27.7827 172.809 27.6079 172.189 27.6079C171.603 27.6079 171.106 27.7376 170.701 27.9969C170.295 28.2449 169.996 28.6508 169.804 29.2145L168.705 28.538C168.931 27.9067 169.348 27.3993 169.957 27.016C170.565 26.6214 171.321 26.4241 172.223 26.4241C172.831 26.4241 173.384 26.5312 173.88 26.7454C174.376 26.9484 174.765 27.264 175.047 27.6925C175.34 28.1096 175.486 28.6508 175.486 29.3159V33.4084C175.486 33.8143 175.701 34.0172 176.129 34.0172C176.343 34.0172 176.552 33.9891 176.755 33.9327L176.687 34.9981C176.462 35.1108 176.169 35.1672 175.808 35.1672C175.391 35.1672 175.03 35.0657 174.725 34.8628C174.432 34.6599 174.241 34.3498 174.151 33.9327C173.857 34.3724 173.457 34.6993 172.95 34.9135C172.442 35.1165 171.941 35.2179 171.445 35.2179C170.949 35.2179 170.486 35.1334 170.058 34.9643C169.63 34.7952 169.286 34.5415 169.026 34.2033C168.778 33.8538 168.654 33.4254 168.654 32.918C168.654 32.2867 168.863 31.7681 169.28 31.3622C169.709 30.945 170.3 30.6632 171.056 30.5166L174.134 29.9078V29.5865ZM170.041 32.8504C170.041 33.1999 170.176 33.4874 170.447 33.7128C170.729 33.9271 171.123 34.0342 171.631 34.0342C172.07 34.0342 172.476 33.9609 172.848 33.8143C173.232 33.6565 173.542 33.4254 173.778 33.121C174.015 32.8053 174.134 32.405 174.134 31.9203V31.024L171.681 31.5313C171.129 31.644 170.718 31.8019 170.447 32.0048C170.176 32.2077 170.041 32.4896 170.041 32.8504ZM178.774 35.0488V26.5932H179.958L180.042 27.9123C180.336 27.3824 180.736 27.0047 181.243 26.7793C181.751 26.5425 182.297 26.4241 182.884 26.4241C183.492 26.4241 184.045 26.5425 184.541 26.7793C185.037 27.0047 185.432 27.3542 185.725 27.8278C186.029 28.3013 186.181 28.9044 186.181 29.6372V35.0488H184.828V30.1108C184.828 29.175 184.625 28.5267 184.22 28.166C183.825 27.7939 183.335 27.6079 182.748 27.6079C182.342 27.6079 181.937 27.7037 181.531 27.8954C181.125 28.0871 180.787 28.3971 180.516 28.8255C180.257 29.2539 180.127 29.8289 180.127 30.5505V35.0488H178.774ZM192.745 26.4241C193.613 26.4241 194.335 26.6271 194.91 27.0329C195.485 27.4275 195.93 27.9743 196.246 28.6733L194.961 29.2821C194.78 28.741 194.504 28.3294 194.132 28.0476C193.771 27.7545 193.298 27.6079 192.711 27.6079C191.866 27.6079 191.201 27.8954 190.716 28.4704C190.242 29.0341 190.006 29.8176 190.006 30.821C190.006 31.8244 190.242 32.6136 190.716 33.1886C191.201 33.7523 191.866 34.0342 192.711 34.0342C193.377 34.0342 193.906 33.882 194.301 33.5776C194.696 33.2732 194.955 32.8447 195.079 32.2923L196.33 32.732C196.048 33.5099 195.603 34.1187 194.994 34.5584C194.397 34.9981 193.647 35.2179 192.745 35.2179C191.956 35.2179 191.251 35.0432 190.631 34.6937C190.011 34.3442 189.526 33.8425 189.177 33.1886C188.827 32.5234 188.653 31.7342 188.653 30.821C188.653 29.9078 188.827 29.1243 189.177 28.4704C189.526 27.8052 190.011 27.2979 190.631 26.9484C191.251 26.5989 191.956 26.4241 192.745 26.4241ZM198.708 35.0488V22.7037H200.06V27.8616C200.354 27.3542 200.743 26.9878 201.227 26.7623C201.712 26.5369 202.242 26.4241 202.817 26.4241C203.426 26.4241 203.978 26.5425 204.474 26.7793C204.97 27.0047 205.365 27.3542 205.658 27.8278C205.962 28.3013 206.115 28.9044 206.115 29.6372V35.0488H204.762V30.1108C204.762 29.175 204.559 28.5267 204.153 28.166C203.758 27.7939 203.268 27.6079 202.682 27.6079C202.276 27.6079 201.87 27.7037 201.464 27.8954C201.058 28.0871 200.72 28.4027 200.449 28.8424C200.19 29.2708 200.06 29.8458 200.06 30.5674V35.0488H198.708Z" fill="black"/>
<rect x="177.567" y="53.6016" width="2.81853" height="352.316" fill="#EFEFF1"/>
<path d="M279.733 6.59324V7.76011H276.908V15.0488H275.556V7.76011H273.864V6.59324H275.556V5.17269C275.556 4.41733 275.787 3.80289 276.249 3.32938C276.711 2.85586 277.404 2.61911 278.329 2.61911C278.622 2.61911 278.898 2.65293 279.158 2.72057C279.417 2.78822 279.62 2.88405 279.766 3.00806L279.411 4.10729C279.141 3.93818 278.819 3.85362 278.447 3.85362C277.963 3.85362 277.585 3.972 277.314 4.20876C277.044 4.43424 276.908 4.80065 276.908 5.30798V6.59324H279.733ZM284.838 15.2179C284.038 15.2179 283.322 15.0432 282.69 14.6937C282.07 14.3442 281.586 13.8425 281.236 13.1886C280.887 12.5234 280.712 11.7342 280.712 10.821C280.712 9.90783 280.887 9.12428 281.236 8.47038C281.586 7.8052 282.065 7.29787 282.674 6.94837C283.282 6.59887 283.976 6.42412 284.754 6.42412C285.543 6.42412 286.214 6.59323 286.766 6.93146C287.33 7.26968 287.758 7.73192 288.051 8.31818C288.344 8.89316 288.491 9.54142 288.491 10.263C288.491 10.4546 288.485 10.6294 288.474 10.7872C288.463 10.945 288.446 11.086 288.423 11.21H282.048C282.115 12.1006 282.392 12.794 282.876 13.2901C283.361 13.7861 284.004 14.0342 284.804 14.0342C285.424 14.0342 285.926 13.9158 286.309 13.679C286.704 13.4423 287.02 13.121 287.256 12.7151L288.322 13.3408C288.006 13.9158 287.55 14.3724 286.952 14.7106C286.366 15.0488 285.661 15.2179 284.838 15.2179ZM284.72 7.60791C284.01 7.60791 283.423 7.82211 282.961 8.25053C282.51 8.66767 282.223 9.25393 282.099 10.0093H287.138C287.104 9.24265 286.868 8.65076 286.428 8.23362C285.988 7.81648 285.419 7.60791 284.72 7.60791ZM296.002 9.58651C296.002 8.95516 295.833 8.47038 295.495 8.13215C295.156 7.78265 294.677 7.60791 294.057 7.60791C293.471 7.60791 292.975 7.73756 292.569 7.99686C292.163 8.24489 291.864 8.65076 291.673 9.21447L290.574 8.53802C290.799 7.90667 291.216 7.39933 291.825 7.01601C292.434 6.62142 293.189 6.42412 294.091 6.42412C294.7 6.42412 295.252 6.53123 295.748 6.74544C296.244 6.94837 296.633 7.26404 296.915 7.69246C297.208 8.1096 297.355 8.65076 297.355 9.31594V13.4084C297.355 13.8143 297.569 14.0172 297.998 14.0172C298.212 14.0172 298.42 13.9891 298.623 13.9327L298.556 14.9981C298.33 15.1108 298.037 15.1672 297.676 15.1672C297.259 15.1672 296.898 15.0657 296.594 14.8628C296.301 14.6599 296.109 14.3498 296.019 13.9327C295.726 14.3724 295.326 14.6993 294.818 14.9135C294.311 15.1165 293.809 15.2179 293.313 15.2179C292.817 15.2179 292.355 15.1334 291.926 14.9643C291.498 14.7952 291.154 14.5415 290.895 14.2033C290.647 13.8538 290.523 13.4254 290.523 12.918C290.523 12.2867 290.731 11.7681 291.149 11.3622C291.577 10.945 292.169 10.6632 292.924 10.5166L296.002 9.90783V9.58651ZM291.91 12.8504C291.91 13.1999 292.045 13.4874 292.315 13.7128C292.597 13.9271 292.992 14.0342 293.499 14.0342C293.939 14.0342 294.345 13.9609 294.717 13.8143C295.1 13.6565 295.41 13.4254 295.647 13.121C295.884 12.8053 296.002 12.405 296.002 11.9203V11.024L293.55 11.5313C292.997 11.644 292.586 11.8019 292.315 12.0048C292.045 12.2077 291.91 12.4896 291.91 12.8504ZM305.386 6.59324V7.76011H302.308V12.7151C302.308 13.1322 302.426 13.4423 302.663 13.6452C302.9 13.8481 303.204 13.9496 303.576 13.9496C303.903 13.9496 304.185 13.8932 304.422 13.7805C304.658 13.6677 304.873 13.5155 305.064 13.3239L305.538 14.4569C305.279 14.6937 304.969 14.8797 304.608 15.015C304.258 15.1503 303.852 15.2179 303.39 15.2179C302.962 15.2179 302.561 15.1447 302.189 14.9981C301.817 14.8403 301.519 14.5979 301.293 14.2709C301.079 13.9327 300.966 13.493 300.955 12.9518V7.76011H299.264V6.59324H300.955V4.56389L302.308 4.19185V6.59324H305.386ZM310.458 15.2179C309.917 15.2179 309.404 15.1165 308.919 14.9135C308.446 14.7106 308.057 14.3837 307.752 13.9327C307.459 13.4705 307.313 12.8729 307.313 12.1401V6.59324H308.665V11.785C308.665 12.6418 308.852 13.2337 309.224 13.5606C309.596 13.8763 310.12 14.0342 310.796 14.0342C311.225 14.0342 311.631 13.9383 312.014 13.7467C312.397 13.5437 312.713 13.2337 312.961 12.8166C313.209 12.3994 313.333 11.8583 313.333 11.1931V6.59324H314.686V15.0488H313.502L313.418 13.7636C313.124 14.2709 312.724 14.643 312.217 14.8797C311.721 15.1052 311.135 15.2179 310.458 15.2179ZM317.835 15.0488V6.59324H318.934L319.12 7.97995C319.593 6.94273 320.495 6.42412 321.826 6.42412C321.972 6.42412 322.13 6.4354 322.299 6.45795C322.479 6.48049 322.632 6.52559 322.756 6.59324L322.519 7.82775C322.395 7.78265 322.26 7.74883 322.113 7.72628C321.966 7.70374 321.758 7.69246 321.487 7.69246C321.138 7.69246 320.783 7.79393 320.422 7.99686C320.072 8.1998 319.779 8.50984 319.543 8.92698C319.306 9.33285 319.187 9.85146 319.187 10.4828V15.0488H317.835ZM328.008 15.2179C327.207 15.2179 326.492 15.0432 325.86 14.6937C325.24 14.3442 324.755 13.8425 324.406 13.1886C324.056 12.5234 323.882 11.7342 323.882 10.821C323.882 9.90783 324.056 9.12428 324.406 8.47038C324.755 7.8052 325.234 7.29787 325.843 6.94837C326.452 6.59887 327.145 6.42412 327.923 6.42412C328.713 6.42412 329.383 6.59323 329.936 6.93146C330.5 7.26968 330.928 7.73192 331.221 8.31818C331.514 8.89316 331.661 9.54142 331.661 10.263C331.661 10.4546 331.655 10.6294 331.644 10.7872C331.633 10.945 331.616 11.086 331.593 11.21H325.218C325.285 12.1006 325.561 12.794 326.046 13.2901C326.531 13.7861 327.174 14.0342 327.974 14.0342C328.594 14.0342 329.096 13.9158 329.479 13.679C329.874 13.4423 330.189 13.121 330.426 12.7151L331.492 13.3408C331.176 13.9158 330.719 14.3724 330.122 14.7106C329.536 15.0488 328.831 15.2179 328.008 15.2179ZM327.89 7.60791C327.179 7.60791 326.593 7.82211 326.131 8.25053C325.68 8.66767 325.392 9.25393 325.268 10.0093H330.308C330.274 9.24265 330.037 8.65076 329.598 8.23362C329.158 7.81648 328.589 7.60791 327.89 7.60791ZM280.08 35.2179C279.437 35.2179 278.862 35.0657 278.355 34.7613C277.847 34.4569 277.464 34.0567 277.205 33.5606L277.12 35.0488H275.936V22.7037H277.289V27.9123C277.56 27.4726 277.938 27.1175 278.422 26.8469C278.918 26.565 279.476 26.4241 280.097 26.4241C280.796 26.4241 281.438 26.5989 282.024 26.9484C282.611 27.2979 283.079 27.7996 283.428 28.4535C283.778 29.1074 283.952 29.8966 283.952 30.821C283.952 31.7342 283.772 32.5234 283.411 33.1886C283.062 33.8425 282.594 34.3442 282.008 34.6937C281.421 35.0432 280.779 35.2179 280.08 35.2179ZM279.944 34.0342C280.779 34.0342 281.427 33.741 281.889 33.1548C282.363 32.5685 282.599 31.7906 282.599 30.821C282.599 29.8515 282.368 29.0735 281.906 28.4873C281.444 27.901 280.796 27.6079 279.961 27.6079C279.172 27.6079 278.529 27.9067 278.033 28.5042C277.537 29.1017 277.289 29.8853 277.289 30.8549C277.289 31.8244 277.532 32.5967 278.016 33.1717C278.513 33.7467 279.155 34.0342 279.944 34.0342ZM286.539 35.0488V26.5932H287.638L287.824 27.98C288.298 26.9427 289.2 26.4241 290.53 26.4241C290.677 26.4241 290.834 26.4354 291.003 26.4579C291.184 26.4805 291.336 26.5256 291.46 26.5932L291.223 27.8278C291.099 27.7827 290.964 27.7488 290.817 27.7263C290.671 27.7037 290.462 27.6925 290.192 27.6925C289.842 27.6925 289.487 27.7939 289.126 27.9969C288.777 28.1998 288.484 28.5098 288.247 28.927C288.01 29.3328 287.892 29.8515 287.892 30.4828V35.0488H286.539ZM298.149 29.5865C298.149 28.9552 297.98 28.4704 297.642 28.1322C297.303 27.7827 296.824 27.6079 296.204 27.6079C295.618 27.6079 295.122 27.7376 294.716 27.9969C294.31 28.2449 294.011 28.6508 293.82 29.2145L292.72 28.538C292.946 27.9067 293.363 27.3993 293.972 27.016C294.581 26.6214 295.336 26.4241 296.238 26.4241C296.847 26.4241 297.399 26.5312 297.895 26.7454C298.391 26.9484 298.78 27.264 299.062 27.6925C299.355 28.1096 299.502 28.6508 299.502 29.3159V33.4084C299.502 33.8143 299.716 34.0172 300.145 34.0172C300.359 34.0172 300.567 33.9891 300.77 33.9327L300.703 34.9981C300.477 35.1108 300.184 35.1672 299.823 35.1672C299.406 35.1672 299.045 35.0657 298.741 34.8628C298.448 34.6599 298.256 34.3498 298.166 33.9327C297.873 34.3724 297.473 34.6993 296.965 34.9135C296.458 35.1165 295.956 35.2179 295.46 35.2179C294.964 35.2179 294.502 35.1334 294.073 34.9643C293.645 34.7952 293.301 34.5415 293.042 34.2033C292.794 33.8538 292.67 33.4254 292.67 32.918C292.67 32.2867 292.878 31.7681 293.295 31.3622C293.724 30.945 294.316 30.6632 295.071 30.5166L298.149 29.9078V29.5865ZM294.056 32.8504C294.056 33.1999 294.192 33.4874 294.462 33.7128C294.744 33.9271 295.139 34.0342 295.646 34.0342C296.086 34.0342 296.492 33.9609 296.864 33.8143C297.247 33.6565 297.557 33.4254 297.794 33.121C298.031 32.8053 298.149 32.405 298.149 31.9203V31.024L295.697 31.5313C295.144 31.644 294.733 31.8019 294.462 32.0048C294.192 32.2077 294.056 32.4896 294.056 32.8504ZM302.79 35.0488V26.5932H303.973L304.058 27.9123C304.351 27.3824 304.751 27.0047 305.259 26.7793C305.766 26.5425 306.313 26.4241 306.899 26.4241C307.508 26.4241 308.06 26.5425 308.556 26.7793C309.052 27.0047 309.447 27.3542 309.74 27.8278C310.044 28.3013 310.197 28.9044 310.197 29.6372V35.0488H308.844V30.1108C308.844 29.175 308.641 28.5267 308.235 28.166C307.84 27.7939 307.35 27.6079 306.764 27.6079C306.358 27.6079 305.952 27.7037 305.546 27.8954C305.14 28.0871 304.802 28.3971 304.531 28.8255C304.272 29.2539 304.142 29.8289 304.142 30.5505V35.0488H302.79ZM316.761 26.4241C317.629 26.4241 318.35 26.6271 318.925 27.0329C319.5 27.4275 319.945 27.9743 320.261 28.6733L318.976 29.2821C318.796 28.741 318.519 28.3294 318.147 28.0476C317.786 27.7545 317.313 27.6079 316.727 27.6079C315.881 27.6079 315.216 27.8954 314.731 28.4704C314.258 29.0341 314.021 29.8176 314.021 30.821C314.021 31.8244 314.258 32.6136 314.731 33.1886C315.216 33.7523 315.881 34.0342 316.727 34.0342C317.392 34.0342 317.922 33.882 318.316 33.5776C318.711 33.2732 318.97 32.8447 319.094 32.2923L320.346 32.732C320.064 33.5099 319.619 34.1187 319.01 34.5584C318.412 34.9981 317.662 35.2179 316.761 35.2179C315.971 35.2179 315.267 35.0432 314.647 34.6937C314.027 34.3442 313.542 33.8425 313.192 33.1886C312.843 32.5234 312.668 31.7342 312.668 30.821C312.668 29.9078 312.843 29.1243 313.192 28.4704C313.542 27.8052 314.027 27.2979 314.647 26.9484C315.267 26.5989 315.971 26.4241 316.761 26.4241ZM322.723 35.0488V22.7037H324.076V27.8616C324.369 27.3542 324.758 26.9878 325.243 26.7623C325.727 26.5369 326.257 26.4241 326.832 26.4241C327.441 26.4241 327.994 26.5425 328.49 26.7793C328.986 27.0047 329.38 27.3542 329.673 27.8278C329.978 28.3013 330.13 28.9044 330.13 29.6372V35.0488H328.777V30.1108C328.777 29.175 328.574 28.5267 328.168 28.166C327.774 27.7939 327.283 27.6079 326.697 27.6079C326.291 27.6079 325.885 27.7037 325.479 27.8954C325.074 28.0871 324.735 28.4027 324.465 28.8424C324.205 29.2708 324.076 29.8458 324.076 30.5674V35.0488H322.723Z" fill="black"/>
<rect x="301.583" y="53.6016" width="2.81853" height="352.316" fill="#EFEFF1"/>
<path d="M394.328 35.0488V26.5932H395.428L395.614 27.98C396.087 26.9427 396.989 26.4241 398.32 26.4241C398.466 26.4241 398.624 26.4354 398.793 26.4579C398.973 26.4805 399.126 26.5256 399.25 26.5932L399.013 27.8278C398.889 27.7827 398.754 27.7488 398.607 27.7263C398.46 27.7037 398.252 27.6925 397.981 27.6925C397.632 27.6925 397.277 27.7939 396.916 27.9969C396.566 28.1998 396.273 28.5098 396.037 28.927C395.8 29.3328 395.681 29.8515 395.681 30.4828V35.0488H394.328ZM404.502 35.2179C403.701 35.2179 402.986 35.0432 402.354 34.6937C401.734 34.3442 401.249 33.8425 400.9 33.1886C400.55 32.5234 400.376 31.7342 400.376 30.821C400.376 29.9078 400.55 29.1243 400.9 28.4704C401.249 27.8052 401.728 27.2979 402.337 26.9484C402.946 26.5989 403.639 26.4241 404.417 26.4241C405.207 26.4241 405.877 26.5932 406.43 26.9315C406.993 27.2697 407.422 27.7319 407.715 28.3182C408.008 28.8932 408.155 29.5414 408.155 30.263C408.155 30.4546 408.149 30.6294 408.138 30.7872C408.127 30.945 408.11 31.086 408.087 31.21H401.712C401.779 32.1006 402.055 32.794 402.54 33.2901C403.025 33.7861 403.668 34.0342 404.468 34.0342C405.088 34.0342 405.59 33.9158 405.973 33.679C406.368 33.4423 406.683 33.121 406.92 32.7151L407.986 33.3408C407.67 33.9158 407.213 34.3724 406.616 34.7106C406.03 35.0488 405.325 35.2179 404.502 35.2179ZM404.384 27.6079C403.673 27.6079 403.087 27.8221 402.625 28.2505C402.174 28.6677 401.886 29.2539 401.762 30.0093H406.802C406.768 29.2427 406.531 28.6508 406.092 28.2336C405.652 27.8165 405.082 27.6079 404.384 27.6079ZM412.013 22.7037V32.9011C412.013 33.3295 412.092 33.6283 412.25 33.7974C412.408 33.9552 412.661 34.0342 413.011 34.0342C413.236 34.0342 413.422 34.0172 413.569 33.9834C413.715 33.9496 413.913 33.8876 414.161 33.7974L413.941 34.9812C413.569 35.139 413.152 35.2179 412.689 35.2179C411.337 35.2179 410.66 34.4626 410.66 32.9518V22.7037H412.013ZM419.431 35.2179C418.631 35.2179 417.915 35.0432 417.284 34.6937C416.663 34.3442 416.179 33.8425 415.829 33.1886C415.48 32.5234 415.305 31.7342 415.305 30.821C415.305 29.9078 415.48 29.1243 415.829 28.4704C416.179 27.8052 416.658 27.2979 417.267 26.9484C417.875 26.5989 418.569 26.4241 419.347 26.4241C420.136 26.4241 420.807 26.5932 421.359 26.9315C421.923 27.2697 422.351 27.7319 422.644 28.3182C422.938 28.8932 423.084 29.5414 423.084 30.263C423.084 30.4546 423.078 30.6294 423.067 30.7872C423.056 30.945 423.039 31.086 423.016 31.21H416.641C416.709 32.1006 416.985 32.794 417.47 33.2901C417.954 33.7861 418.597 34.0342 419.397 34.0342C420.018 34.0342 420.519 33.9158 420.903 33.679C421.297 33.4423 421.613 33.121 421.85 32.7151L422.915 33.3408C422.599 33.9158 422.143 34.3724 421.545 34.7106C420.959 35.0488 420.254 35.2179 419.431 35.2179ZM419.313 27.6079C418.603 27.6079 418.016 27.8221 417.554 28.2505C417.103 28.6677 416.816 29.2539 416.692 30.0093H421.731C421.697 29.2427 421.461 28.6508 421.021 28.2336C420.581 27.8165 420.012 27.6079 419.313 27.6079ZM430.595 29.5865C430.595 28.9552 430.426 28.4704 430.088 28.1322C429.75 27.7827 429.27 27.6079 428.65 27.6079C428.064 27.6079 427.568 27.7376 427.162 27.9969C426.756 28.2449 426.458 28.6508 426.266 29.2145L425.167 28.538C425.392 27.9067 425.809 27.3993 426.418 27.016C427.027 26.6214 427.782 26.4241 428.684 26.4241C429.293 26.4241 429.845 26.5312 430.342 26.7454C430.838 26.9484 431.227 27.264 431.508 27.6925C431.802 28.1096 431.948 28.6508 431.948 29.3159V33.4084C431.948 33.8143 432.162 34.0172 432.591 34.0172C432.805 34.0172 433.013 33.9891 433.216 33.9327L433.149 34.9981C432.923 35.1108 432.63 35.1672 432.269 35.1672C431.852 35.1672 431.491 35.0657 431.187 34.8628C430.894 34.6599 430.702 34.3498 430.612 33.9327C430.319 34.3724 429.919 34.6993 429.411 34.9135C428.904 35.1165 428.402 35.2179 427.906 35.2179C427.41 35.2179 426.948 35.1334 426.52 34.9643C426.091 34.7952 425.747 34.5415 425.488 34.2033C425.24 33.8538 425.116 33.4254 425.116 32.918C425.116 32.2867 425.325 31.7681 425.742 31.3622C426.17 30.945 426.762 30.6632 427.517 30.5166L430.595 29.9078V29.5865ZM426.503 32.8504C426.503 33.1999 426.638 33.4874 426.909 33.7128C427.19 33.9271 427.585 34.0342 428.092 34.0342C428.532 34.0342 428.938 33.9609 429.31 33.8143C429.693 33.6565 430.003 33.4254 430.24 33.121C430.477 32.8053 430.595 32.405 430.595 31.9203V31.024L428.143 31.5313C427.591 31.644 427.179 31.8019 426.909 32.0048C426.638 32.2077 426.503 32.4896 426.503 32.8504ZM438.28 35.2179C437.457 35.2179 436.696 35.0432 435.997 34.6937C435.309 34.3442 434.779 33.8481 434.407 33.2055L435.557 32.3769C435.805 32.8955 436.166 33.3013 436.639 33.5945C437.124 33.8876 437.705 34.0342 438.381 34.0342C438.979 34.0342 439.447 33.9214 439.785 33.6959C440.123 33.4592 440.292 33.1548 440.292 32.7827C440.292 32.546 440.213 32.3318 440.055 32.1401C439.909 31.9372 439.621 31.7906 439.193 31.7004L437.164 31.2776C436.341 31.1085 435.749 30.8267 435.388 30.4321C435.038 30.0375 434.864 29.5471 434.864 28.9608C434.864 28.4986 434.993 28.0758 435.253 27.6925C435.523 27.3091 435.901 27.0047 436.386 26.7793C436.882 26.5425 437.462 26.4241 438.128 26.4241C438.962 26.4241 439.666 26.5876 440.241 26.9145C440.816 27.2415 441.245 27.7037 441.527 28.3013L440.394 29.0454C440.202 28.5493 439.892 28.1885 439.464 27.963C439.035 27.7263 438.59 27.6079 438.128 27.6079C437.519 27.6079 437.045 27.7319 436.707 27.98C436.369 28.228 436.2 28.538 436.2 28.9101C436.2 29.1581 436.284 29.3892 436.453 29.6034C436.622 29.8064 436.938 29.9529 437.4 30.0431L439.514 30.4828C440.303 30.6406 440.856 30.9 441.172 31.2607C441.487 31.6215 441.645 32.0612 441.645 32.5798C441.645 33.3803 441.335 34.0229 440.715 34.5077C440.095 34.9812 439.283 35.2179 438.28 35.2179ZM447.688 35.2179C446.888 35.2179 446.172 35.0432 445.54 34.6937C444.92 34.3442 444.436 33.8425 444.086 33.1886C443.737 32.5234 443.562 31.7342 443.562 30.821C443.562 29.9078 443.737 29.1243 444.086 28.4704C444.436 27.8052 444.915 27.2979 445.524 26.9484C446.132 26.5989 446.826 26.4241 447.604 26.4241C448.393 26.4241 449.064 26.5932 449.616 26.9315C450.18 27.2697 450.608 27.7319 450.901 28.3182C451.194 28.8932 451.341 29.5414 451.341 30.263C451.341 30.4546 451.335 30.6294 451.324 30.7872C451.313 30.945 451.296 31.086 451.273 31.21H444.898C444.965 32.1006 445.242 32.794 445.726 33.2901C446.211 33.7861 446.854 34.0342 447.654 34.0342C448.274 34.0342 448.776 33.9158 449.159 33.679C449.554 33.4423 449.87 33.121 450.106 32.7151L451.172 33.3408C450.856 33.9158 450.4 34.3724 449.802 34.7106C449.216 35.0488 448.511 35.2179 447.688 35.2179ZM447.57 27.6079C446.86 27.6079 446.273 27.8221 445.811 28.2505C445.36 28.6677 445.073 29.2539 444.949 30.0093H449.988C449.954 29.2427 449.717 28.6508 449.278 28.2336C448.838 27.8165 448.269 27.6079 447.57 27.6079ZM456.958 35.2179C456.135 35.2179 455.374 35.0432 454.675 34.6937C453.987 34.3442 453.457 33.8481 453.085 33.2055L454.235 32.3769C454.483 32.8955 454.844 33.3013 455.318 33.5945C455.802 33.8876 456.383 34.0342 457.059 34.0342C457.657 34.0342 458.125 33.9214 458.463 33.6959C458.801 33.4592 458.97 33.1548 458.97 32.7827C458.97 32.546 458.892 32.3318 458.734 32.1401C458.587 31.9372 458.3 31.7906 457.871 31.7004L455.842 31.2776C455.019 31.1085 454.427 30.8267 454.066 30.4321C453.717 30.0375 453.542 29.5471 453.542 28.9608C453.542 28.4986 453.672 28.0758 453.931 27.6925C454.201 27.3091 454.579 27.0047 455.064 26.7793C455.56 26.5425 456.141 26.4241 456.806 26.4241C457.64 26.4241 458.345 26.5876 458.92 26.9145C459.495 27.2415 459.923 27.7037 460.205 28.3013L459.072 29.0454C458.88 28.5493 458.57 28.1885 458.142 27.963C457.713 27.7263 457.268 27.6079 456.806 27.6079C456.197 27.6079 455.723 27.7319 455.385 27.98C455.047 28.228 454.878 28.538 454.878 28.9101C454.878 29.1581 454.962 29.3892 455.132 29.6034C455.301 29.8064 455.616 29.9529 456.079 30.0431L458.193 30.4828C458.982 30.6406 459.534 30.9 459.85 31.2607C460.165 31.6215 460.323 32.0612 460.323 32.5798C460.323 33.3803 460.013 34.0229 459.393 34.5077C458.773 34.9812 457.961 35.2179 456.958 35.2179Z" fill="black"/>
<path d="M62.8619 194.092C62.6221 194.398 62.6761 194.841 62.9825 195.081L67.9766 198.99C68.2831 199.229 68.726 199.175 68.9658 198.869C69.2057 198.562 69.1516 198.12 68.8452 197.88L64.406 194.406L67.8801 189.966C68.12 189.66 68.066 189.217 67.7595 188.977C67.453 188.737 67.0102 188.791 66.7703 189.098L62.8619 194.092ZM178.891 179.734L63.3315 193.827L63.5021 195.226L179.062 181.133L178.891 179.734Z" fill="black"/>
<path d="M82.9453 183.728C83.5199 183.658 84.0137 183.735 84.4267 183.957C84.8389 184.172 85.1774 184.499 85.4423 184.936L84.6404 185.442C84.4776 185.098 84.2619 184.848 83.9931 184.691C83.7309 184.526 83.4057 184.467 83.0177 184.514C82.4581 184.582 82.0409 184.825 81.766 185.244C81.4978 185.655 81.4038 186.193 81.4841 186.857C81.5645 187.521 81.7843 188.025 82.1438 188.367C82.5097 188.701 82.9726 188.835 83.5322 188.767C83.9724 188.714 84.3109 188.571 84.5477 188.338C84.7845 188.105 84.9218 187.8 84.9597 187.425L85.8231 187.616C85.6989 188.153 85.4529 188.592 85.0851 188.931C84.7249 189.27 84.2463 189.476 83.6493 189.548C83.127 189.611 82.6467 189.552 82.2083 189.37C81.7699 189.188 81.4089 188.895 81.1252 188.49C80.8407 188.078 80.6618 187.57 80.5887 186.965C80.5156 186.361 80.5686 185.828 80.7475 185.368C80.9256 184.899 81.2058 184.525 81.5882 184.244C81.9706 183.963 82.423 183.791 82.9453 183.728ZM89.2083 182.97C89.7381 182.906 90.2185 182.965 90.6494 183.148C91.0878 183.33 91.4492 183.627 91.7338 184.039C92.0175 184.444 92.1958 184.948 92.2689 185.553C92.3421 186.157 92.2896 186.693 92.1115 187.161C91.9325 187.622 91.6519 187.993 91.2694 188.274C90.8945 188.554 90.4421 188.726 89.9123 188.79C89.39 188.853 88.9097 188.794 88.4713 188.613C88.0329 188.431 87.6719 188.138 87.3883 187.733C87.1037 187.321 86.9249 186.812 86.8518 186.208C86.7786 185.603 86.8316 185.071 87.0105 184.61C87.1886 184.142 87.4688 183.767 87.8513 183.486C88.2337 183.205 88.686 183.033 89.2083 182.97ZM89.3018 183.742C88.7347 183.811 88.3137 184.055 88.0389 184.474C87.7641 184.894 87.6668 185.435 87.7472 186.1C87.8275 186.764 88.0511 187.267 88.418 187.608C88.7849 187.95 89.2518 188.087 89.8189 188.018C90.386 187.949 90.807 187.705 91.0818 187.286C91.3566 186.867 91.4539 186.325 91.3735 185.661C91.2932 184.997 91.0696 184.494 90.7027 184.152C90.3358 183.81 89.8689 183.674 89.3018 183.742ZM96.4892 187.995C96.0266 188.051 95.5873 187.986 95.1713 187.802C94.7553 187.618 94.4055 187.323 94.1218 186.918C93.8372 186.506 93.6584 185.998 93.5853 185.393C93.5104 184.774 93.5699 184.233 93.7638 183.771C93.9576 183.308 94.2425 182.94 94.6184 182.668C94.9933 182.388 95.4121 182.22 95.8747 182.164C96.2777 182.115 96.6471 182.165 96.9831 182.314C97.3181 182.455 97.5792 182.673 97.7664 182.968L97.3453 179.488L98.2407 179.379L99.229 187.55L98.4455 187.645L98.2623 186.599C98.1516 186.999 97.9332 187.32 97.6068 187.564C97.2796 187.801 96.907 187.944 96.4892 187.995ZM96.484 187.2C97.0137 187.136 97.4151 186.887 97.6882 186.453C97.9686 186.018 98.0678 185.461 97.9857 184.782C97.9081 184.14 97.6872 183.659 97.323 183.34C96.9579 183.013 96.5217 182.88 96.0143 182.942C95.4472 183.01 95.0304 183.258 94.764 183.684C94.4975 184.11 94.4031 184.643 94.4807 185.285C94.5583 185.927 94.7736 186.423 95.1264 186.774C95.4793 187.125 95.9318 187.267 96.484 187.2ZM103.663 187.127C103.133 187.191 102.645 187.133 102.2 186.952C101.761 186.77 101.4 186.477 101.117 186.072C100.832 185.66 100.653 185.152 100.58 184.547C100.507 183.943 100.56 183.41 100.739 182.95C100.917 182.481 101.193 182.107 101.568 181.827C101.943 181.547 102.388 181.376 102.903 181.314C103.425 181.25 103.883 181.309 104.276 181.488C104.676 181.667 104.996 181.939 105.237 182.303C105.477 182.66 105.626 183.078 105.684 183.555C105.699 183.682 105.71 183.798 105.715 183.903C105.72 184.009 105.72 184.103 105.715 184.187L101.495 184.698C101.612 185.282 101.85 185.719 102.21 186.008C102.571 186.298 103.016 186.41 103.546 186.346C103.956 186.297 104.279 186.178 104.514 185.991C104.756 185.802 104.939 185.564 105.063 185.277L105.818 185.606C105.656 186.012 105.39 186.35 105.022 186.622C104.661 186.893 104.208 187.061 103.663 187.127ZM102.976 182.1C102.505 182.157 102.135 182.345 101.863 182.666C101.598 182.978 101.455 183.389 101.433 183.899L104.768 183.496C104.685 182.991 104.48 182.618 104.156 182.377C103.832 182.136 103.438 182.044 102.976 182.1ZM111.585 186.055L110.908 180.459L111.635 180.371L111.869 181.274C112.1 180.549 112.655 180.134 113.536 180.028C113.633 180.016 113.738 180.011 113.852 180.012C113.973 180.012 114.077 180.03 114.165 180.065L114.107 180.901C114.021 180.881 113.929 180.87 113.83 180.866C113.731 180.863 113.592 180.872 113.413 180.894C113.182 180.922 112.955 181.018 112.733 181.181C112.518 181.343 112.348 181.572 112.225 181.867C112.101 182.154 112.064 182.507 112.115 182.925L112.48 185.947L111.585 186.055ZM118.331 185.353C117.802 185.417 117.314 185.358 116.868 185.178C116.43 184.996 116.069 184.703 115.785 184.298C115.5 183.886 115.322 183.377 115.248 182.773C115.175 182.169 115.228 181.636 115.407 181.175C115.585 180.707 115.862 180.333 116.237 180.053C116.612 179.773 117.057 179.602 117.571 179.539C118.094 179.476 118.551 179.534 118.944 179.714C119.344 179.893 119.665 180.164 119.906 180.529C120.146 180.886 120.295 181.303 120.352 181.781C120.368 181.908 120.378 182.024 120.383 182.129C120.388 182.235 120.388 182.329 120.383 182.413L116.164 182.923C116.28 183.508 116.518 183.944 116.879 184.234C117.239 184.523 117.684 184.636 118.214 184.572C118.625 184.522 118.947 184.404 119.182 184.216C119.424 184.028 119.607 183.79 119.732 183.503L120.487 183.831C120.324 184.237 120.058 184.576 119.69 184.848C119.329 185.118 118.876 185.287 118.331 185.353ZM117.644 180.326C117.174 180.382 116.803 180.571 116.531 180.892C116.266 181.204 116.123 181.615 116.101 182.125L119.437 181.721C119.353 181.217 119.149 180.844 118.824 180.603C118.5 180.362 118.106 180.27 117.644 180.326ZM125.313 178.716L126.253 178.603L124.602 184.481L123.707 184.589L120.702 179.274L121.72 179.151L124.056 183.627L125.313 178.716ZM127.741 177.333C127.54 177.357 127.368 177.317 127.227 177.213C127.092 177.101 127.013 176.944 126.988 176.742C126.964 176.541 127.004 176.373 127.109 176.239C127.221 176.097 127.377 176.014 127.579 175.989C127.78 175.965 127.948 176.009 128.083 176.122C128.224 176.226 128.307 176.378 128.331 176.58C128.356 176.781 128.312 176.953 128.201 177.095C128.096 177.229 127.943 177.308 127.741 177.333ZM128.319 178.353L128.996 183.949L128.1 184.058L127.423 178.461L128.319 178.353ZM133.426 183.527C132.896 183.591 132.408 183.533 131.963 183.352C131.524 183.17 131.163 182.877 130.88 182.472C130.595 182.06 130.416 181.552 130.343 180.947C130.27 180.343 130.323 179.81 130.502 179.349C130.68 178.881 130.956 178.507 131.331 178.227C131.706 177.947 132.151 177.776 132.666 177.714C133.188 177.65 133.646 177.709 134.039 177.888C134.439 178.067 134.759 178.339 135 178.703C135.24 179.06 135.389 179.477 135.447 179.955C135.462 180.082 135.473 180.198 135.478 180.303C135.483 180.409 135.483 180.503 135.478 180.587L131.258 181.098C131.375 181.682 131.613 182.118 131.973 182.408C132.334 182.697 132.779 182.81 133.309 182.746C133.719 182.696 134.042 182.578 134.277 182.391C134.519 182.202 134.702 181.964 134.826 181.677L135.581 182.006C135.419 182.411 135.153 182.75 134.785 183.022C134.424 183.293 133.971 183.461 133.426 183.527ZM132.738 178.5C132.268 178.557 131.898 178.745 131.626 179.066C131.361 179.378 131.217 179.789 131.196 180.299L134.531 179.895C134.448 179.391 134.243 179.018 133.919 178.777C133.595 178.536 133.201 178.444 132.738 178.5ZM143.743 176.487L144.739 176.367L143.468 182.199L142.573 182.307L140.456 178.043L139.506 182.678L138.611 182.786L135.986 177.425L136.982 177.305L138.944 181.69L139.915 176.95L140.81 176.842L142.883 181.213L143.743 176.487Z" fill="black"/>
<path d="M82.9453 278.144C83.5199 278.074 84.0137 278.151 84.4267 278.373C84.8389 278.588 85.1774 278.915 85.4423 279.352L84.6404 279.858C84.4776 279.514 84.2619 279.264 83.9931 279.107C83.7309 278.942 83.4057 278.883 83.0177 278.93C82.4581 278.998 82.0409 279.241 81.766 279.66C81.4978 280.071 81.4038 280.609 81.4841 281.273C81.5645 281.937 81.7843 282.441 82.1438 282.783C82.5097 283.117 82.9726 283.251 83.5322 283.183C83.9724 283.13 84.3109 282.987 84.5477 282.754C84.7845 282.521 84.9218 282.216 84.9597 281.841L85.8231 282.032C85.6989 282.569 85.4529 283.008 85.0851 283.347C84.7249 283.686 84.2463 283.892 83.6493 283.964C83.127 284.027 82.6467 283.968 82.2083 283.786C81.7699 283.604 81.4089 283.311 81.1252 282.906C80.8407 282.494 80.6618 281.986 80.5887 281.381C80.5156 280.777 80.5686 280.244 80.7475 279.784C80.9256 279.315 81.2058 278.941 81.5882 278.66C81.9706 278.379 82.423 278.207 82.9453 278.144ZM89.2083 277.386C89.7381 277.322 90.2185 277.381 90.6494 277.564C91.0878 277.746 91.4492 278.043 91.7338 278.455C92.0175 278.86 92.1958 279.364 92.2689 279.969C92.3421 280.573 92.2896 281.109 92.1115 281.578C91.9325 282.038 91.6519 282.409 91.2694 282.69C90.8945 282.97 90.4421 283.142 89.9123 283.206C89.39 283.269 88.9097 283.21 88.4713 283.029C88.0329 282.847 87.6719 282.554 87.3883 282.149C87.1037 281.737 86.9249 281.228 86.8518 280.624C86.7786 280.019 86.8316 279.487 87.0105 279.026C87.1886 278.558 87.4688 278.183 87.8513 277.902C88.2337 277.621 88.686 277.449 89.2083 277.386ZM89.3018 278.158C88.7347 278.227 88.3137 278.471 88.0389 278.89C87.7641 279.31 87.6668 279.851 87.7472 280.516C87.8275 281.18 88.0511 281.683 88.418 282.024C88.7849 282.366 89.2518 282.503 89.8189 282.434C90.386 282.365 90.807 282.121 91.0818 281.702C91.3566 281.283 91.4539 280.741 91.3735 280.077C91.2932 279.413 91.0696 278.91 90.7027 278.568C90.3358 278.226 89.8689 278.09 89.3018 278.158ZM96.4892 282.411C96.0266 282.467 95.5873 282.402 95.1713 282.218C94.7553 282.034 94.4055 281.739 94.1218 281.334C93.8372 280.922 93.6584 280.414 93.5853 279.809C93.5104 279.19 93.5699 278.649 93.7638 278.187C93.9576 277.724 94.2425 277.356 94.6184 277.084C94.9933 276.804 95.4121 276.636 95.8747 276.58C96.2777 276.531 96.6471 276.581 96.9831 276.73C97.3181 276.871 97.5792 277.089 97.7664 277.384L97.3453 273.904L98.2407 273.795L99.229 281.966L98.4455 282.061L98.2623 281.015C98.1516 281.415 97.9332 281.736 97.6068 281.98C97.2796 282.217 96.907 282.36 96.4892 282.411ZM96.484 281.616C97.0137 281.552 97.4151 281.303 97.6882 280.869C97.9686 280.434 98.0678 279.877 97.9857 279.198C97.9081 278.556 97.6872 278.075 97.323 277.756C96.9579 277.429 96.5217 277.296 96.0143 277.358C95.4472 277.426 95.0304 277.674 94.764 278.1C94.4975 278.526 94.4031 279.059 94.4807 279.701C94.5583 280.343 94.7736 280.839 95.1264 281.19C95.4793 281.541 95.9318 281.683 96.484 281.616ZM103.663 281.543C103.133 281.607 102.645 281.549 102.2 281.368C101.761 281.186 101.4 280.893 101.117 280.488C100.832 280.076 100.653 279.568 100.58 278.963C100.507 278.359 100.56 277.826 100.739 277.366C100.917 276.897 101.193 276.523 101.568 276.243C101.943 275.963 102.388 275.792 102.903 275.73C103.425 275.666 103.883 275.725 104.276 275.904C104.676 276.083 104.996 276.355 105.237 276.719C105.477 277.076 105.626 277.494 105.684 277.971C105.699 278.098 105.71 278.214 105.715 278.319C105.72 278.425 105.72 278.519 105.715 278.603L101.495 279.114C101.612 279.698 101.85 280.135 102.21 280.424C102.571 280.714 103.016 280.826 103.546 280.762C103.956 280.713 104.279 280.594 104.514 280.407C104.756 280.218 104.939 279.98 105.063 279.693L105.818 280.022C105.656 280.428 105.39 280.766 105.022 281.038C104.661 281.309 104.208 281.477 103.663 281.543ZM102.976 276.516C102.505 276.573 102.135 276.761 101.863 277.082C101.598 277.394 101.455 277.805 101.433 278.315L104.768 277.912C104.685 277.407 104.48 277.034 104.156 276.793C103.832 276.552 103.438 276.46 102.976 276.516ZM111.585 280.471L110.908 274.875L111.635 274.787L111.869 275.69C112.1 274.965 112.655 274.55 113.536 274.444C113.633 274.432 113.738 274.427 113.852 274.428C113.973 274.428 114.077 274.446 114.165 274.481L114.107 275.317C114.021 275.297 113.929 275.286 113.83 275.282C113.731 275.279 113.592 275.288 113.413 275.31C113.182 275.338 112.955 275.434 112.733 275.597C112.518 275.759 112.348 275.988 112.225 276.283C112.101 276.57 112.064 276.923 112.115 277.341L112.48 280.363L111.585 280.471ZM118.331 279.769C117.802 279.833 117.314 279.774 116.868 279.594C116.43 279.412 116.069 279.119 115.785 278.714C115.5 278.302 115.322 277.793 115.248 277.189C115.175 276.585 115.228 276.052 115.407 275.591C115.585 275.123 115.862 274.749 116.237 274.469C116.612 274.189 117.057 274.018 117.571 273.955C118.094 273.892 118.551 273.95 118.944 274.13C119.344 274.309 119.665 274.58 119.906 274.945C120.146 275.302 120.295 275.719 120.352 276.197C120.368 276.324 120.378 276.44 120.383 276.545C120.388 276.651 120.388 276.745 120.383 276.829L116.164 277.339C116.28 277.924 116.518 278.36 116.879 278.65C117.239 278.939 117.684 279.052 118.214 278.988C118.625 278.938 118.947 278.82 119.182 278.632C119.424 278.444 119.607 278.206 119.732 277.919L120.487 278.247C120.324 278.653 120.058 278.992 119.69 279.264C119.329 279.535 118.876 279.703 118.331 279.769ZM117.644 274.742C117.174 274.798 116.803 274.987 116.531 275.308C116.266 275.62 116.123 276.031 116.101 276.541L119.437 276.137C119.353 275.633 119.149 275.26 118.824 275.019C118.5 274.778 118.106 274.686 117.644 274.742ZM125.313 273.132L126.253 273.019L124.602 278.897L123.707 279.005L120.702 273.69L121.72 273.567L124.056 278.043L125.313 273.132ZM127.741 271.749C127.54 271.773 127.368 271.733 127.227 271.629C127.092 271.517 127.013 271.36 126.988 271.158C126.964 270.957 127.004 270.789 127.109 270.655C127.221 270.513 127.377 270.43 127.579 270.406C127.78 270.381 127.948 270.425 128.083 270.538C128.224 270.642 128.307 270.794 128.331 270.996C128.356 271.197 128.312 271.369 128.201 271.511C128.096 271.645 127.943 271.724 127.741 271.749ZM128.319 272.769L128.996 278.365L128.1 278.474L127.423 272.877L128.319 272.769ZM133.426 277.943C132.896 278.007 132.408 277.949 131.963 277.768C131.524 277.586 131.163 277.293 130.88 276.888C130.595 276.476 130.416 275.968 130.343 275.363C130.27 274.759 130.323 274.226 130.502 273.765C130.68 273.297 130.956 272.923 131.331 272.643C131.706 272.363 132.151 272.192 132.666 272.13C133.188 272.066 133.646 272.125 134.039 272.304C134.439 272.483 134.759 272.755 135 273.119C135.24 273.476 135.389 273.893 135.447 274.371C135.462 274.498 135.473 274.614 135.478 274.719C135.483 274.825 135.483 274.919 135.478 275.003L131.258 275.514C131.375 276.098 131.613 276.534 131.973 276.824C132.334 277.113 132.779 277.226 133.309 277.162C133.719 277.112 134.042 276.994 134.277 276.807C134.519 276.618 134.702 276.38 134.826 276.093L135.581 276.422C135.419 276.827 135.153 277.166 134.785 277.438C134.424 277.709 133.971 277.877 133.426 277.943ZM132.738 272.916C132.268 272.973 131.898 273.161 131.626 273.482C131.361 273.794 131.217 274.205 131.196 274.715L134.531 274.311C134.448 273.807 134.243 273.434 133.919 273.193C133.595 272.952 133.201 272.86 132.738 272.916ZM143.743 270.903L144.739 270.783L143.468 276.615L142.573 276.723L140.456 272.459L139.506 277.094L138.611 277.202L135.986 271.841L136.982 271.721L138.944 276.106L139.915 271.366L140.81 271.258L142.883 275.629L143.743 270.903Z" fill="black"/>
<path d="M171.076 137.723C171.316 138.029 171.262 138.472 170.955 138.712L165.961 142.62C165.655 142.86 165.212 142.806 164.972 142.5C164.732 142.193 164.786 141.75 165.093 141.511L169.532 138.036L166.058 133.597C165.818 133.291 165.872 132.848 166.178 132.608C166.485 132.368 166.928 132.422 167.167 132.729L171.076 137.723ZM55.0465 123.365L170.606 137.458L170.436 138.857L54.8759 124.764L55.0465 123.365Z" fill="black"/>
<path d="M62.8612 288.513C62.6219 288.82 62.6766 289.262 62.9834 289.502L67.9836 293.402C68.2904 293.642 68.7332 293.587 68.9726 293.28C69.2119 292.973 69.1572 292.531 68.8504 292.291L64.4058 288.824L67.873 284.379C68.1124 284.073 68.0577 283.63 67.7509 283.39C67.444 283.151 67.0013 283.206 66.7619 283.513L62.8612 288.513ZM302.906 258.652L63.3304 288.247L63.5032 289.645L303.078 260.051L302.906 258.652Z" fill="black"/>
<path d="M295.093 112.356C295.332 112.663 295.277 113.106 294.97 113.345L289.97 117.246C289.663 117.485 289.221 117.431 288.981 117.124C288.742 116.817 288.797 116.374 289.103 116.135L293.548 112.668L290.081 108.223C289.841 107.916 289.896 107.473 290.203 107.234C290.51 106.995 290.953 107.049 291.192 107.356L295.093 112.356ZM55.0483 82.496L294.623 112.091L294.451 113.489L54.8755 83.8946L55.0483 82.496Z" fill="black"/>
<path d="M418.983 292.325C419.291 292.087 419.347 291.644 419.109 291.336L415.23 286.32C414.992 286.012 414.55 285.955 414.242 286.193C413.934 286.431 413.877 286.874 414.115 287.182L417.563 291.641L413.104 295.089C412.796 295.327 412.739 295.77 412.977 296.078C413.215 296.385 413.658 296.442 413.966 296.204L418.983 292.325ZM54.8718 245.961L418.462 292.466L418.641 291.069L55.0506 244.563L54.8718 245.961Z" fill="black"/>
<path d="M418.983 385.337C419.291 385.099 419.347 384.656 419.109 384.348L415.23 379.331C414.992 379.023 414.55 378.967 414.242 379.205C413.934 379.443 413.877 379.885 414.115 380.193L417.563 384.653L413.104 388.101C412.796 388.339 412.739 388.781 412.977 389.089C413.215 389.397 413.658 389.454 413.966 389.216L418.983 385.337ZM54.8718 338.972L418.462 385.478L418.641 384.08L55.0506 337.574L54.8718 338.972Z" fill="black"/>
<path d="M302.494 154.157C302.769 154.432 303.215 154.432 303.49 154.157L307.974 149.673C308.25 149.397 308.25 148.951 307.974 148.676C307.699 148.401 307.253 148.401 306.978 148.676L302.992 152.662L299.006 148.676C298.731 148.401 298.285 148.401 298.009 148.676C297.734 148.951 297.734 149.397 298.009 149.673L302.494 154.157ZM302.287 114.199L302.287 153.659L303.697 153.659L303.697 114.199L302.287 114.199Z" fill="black"/>
<path d="M302.494 202.071C302.769 202.346 303.215 202.346 303.49 202.071L307.974 197.587C308.25 197.312 308.25 196.865 307.974 196.59C307.699 196.315 307.253 196.315 306.978 196.59L302.992 200.576L299.006 196.59C298.731 196.315 298.285 196.315 298.009 196.59C297.734 196.865 297.734 197.312 298.009 197.587L302.494 202.071ZM302.287 162.113L302.287 201.573L303.697 201.573L303.697 162.113L302.287 162.113Z" fill="black"/>
<path d="M302.494 251.396C302.769 251.671 303.215 251.671 303.49 251.396L307.974 246.912C308.25 246.637 308.25 246.191 307.974 245.915C307.699 245.64 307.253 245.64 306.978 245.915L302.992 249.901L299.006 245.915C298.731 245.64 298.285 245.64 298.009 245.915C297.734 246.191 297.734 246.637 298.009 246.912L302.494 251.396ZM302.287 210.029L302.287 250.898L303.697 250.898L303.697 210.029L302.287 210.029Z" fill="black"/>
<path d="M178.479 172.476C178.754 172.751 179.2 172.751 179.476 172.476L183.96 167.992C184.235 167.716 184.235 167.27 183.96 166.995C183.685 166.72 183.238 166.72 182.963 166.995L178.977 170.981L174.991 166.995C174.716 166.72 174.27 166.72 173.995 166.995C173.72 167.27 173.72 167.716 173.995 167.992L178.479 172.476ZM178.273 139.564V171.978H179.682V139.564H178.273Z" fill="black"/>
<path d="M54.4646 116.107C54.7398 116.382 55.186 116.382 55.4611 116.107L59.9454 111.622C60.2206 111.347 60.2206 110.901 59.9454 110.626C59.6702 110.351 59.2241 110.351 58.9489 110.626L54.9629 114.612L50.9769 110.626C50.7017 110.351 50.2556 110.351 49.9804 110.626C49.7052 110.901 49.7052 111.347 49.9804 111.622L54.4646 116.107ZM54.2583 83.1953V115.608H55.6675V83.1953H54.2583Z" fill="black"/>
<path d="M54.4629 237.304C54.7381 237.579 55.1843 237.579 55.4594 237.304L59.9437 232.82C60.2189 232.545 60.2189 232.099 59.9437 231.824C59.6685 231.548 59.2224 231.548 58.9472 231.824L54.9612 235.81L50.9752 231.824C50.7 231.548 50.2539 231.548 49.9787 231.824C49.7035 232.099 49.7035 232.545 49.9787 232.82L54.4629 237.304ZM54.2565 198.756L54.2566 236.806L55.6658 236.806L55.6658 198.756L54.2565 198.756Z" fill="black"/>
<path d="M54.4629 283.81C54.7381 284.085 55.1843 284.085 55.4594 283.81L59.9437 279.326C60.2189 279.051 60.2189 278.605 59.9437 278.329C59.6685 278.054 59.2224 278.054 58.9472 278.329L54.9612 282.315L50.9752 278.329C50.7 278.054 50.2539 278.054 49.9787 278.329C49.7035 278.605 49.7035 279.051 49.9787 279.326L54.4629 283.81ZM54.2565 245.262L54.2566 283.312L55.6658 283.312L55.6658 245.262L54.2565 245.262Z" fill="black"/>
<path d="M54.4629 330.316C54.7381 330.591 55.1843 330.591 55.4594 330.316L59.9437 325.832C60.2189 325.557 60.2189 325.11 59.9437 324.835C59.6685 324.56 59.2224 324.56 58.9472 324.835L54.9612 328.821L50.9752 324.835C50.7 324.56 50.2539 324.56 49.9787 324.835C49.7035 325.11 49.7035 325.557 49.9787 325.832L54.4629 330.316ZM54.2565 291.768L54.2566 329.818L55.6658 329.818L55.6658 291.768L54.2565 291.768Z" fill="black"/>
<path d="M54.4644 189.388C54.7396 189.663 55.1857 189.663 55.4609 189.388L59.9452 184.904C60.2203 184.628 60.2203 184.182 59.9452 183.907C59.67 183.632 59.2238 183.632 58.9487 183.907L54.9626 187.893L50.9766 183.907C50.7015 183.632 50.2553 183.632 49.9801 183.907C49.705 184.182 49.705 184.628 49.9801 184.904L54.4644 189.388ZM54.258 125.473L54.258 188.89H55.6673L55.6673 125.473H54.258Z" fill="black"/>
<circle cx="54.9615" cy="83.1958" r="8.45559" fill="#0A56CA"/>
<circle cx="54.9612" cy="124.065" r="8.45559" fill="#0A56CA"/>
<circle cx="54.9612" cy="245.26" r="8.45559" fill="#0A56CA"/>
<circle cx="54.9612" cy="291.766" r="8.45559" fill="#0A56CA"/>
<circle cx="54.9612" cy="338.272" r="8.45559" fill="#0A56CA"/>
<circle cx="54.9612" cy="197.346" r="8.45559" fill="#0A56CA"/>
<circle cx="178.977" cy="139.567" r="8.45559" fill="#FCB54D"/>
<circle cx="302.992" cy="114.2" r="8.45559" fill="#FCB54D"/>
<circle cx="302.992" cy="162.114" r="8.45559" fill="#FCB54D"/>
<circle cx="302.992" cy="210.03" r="8.45559" fill="#FCB54D"/>
<circle cx="302.992" cy="257.944" r="8.45559" fill="#FCB54D"/>
<circle cx="178.977" cy="180.436" r="8.45559" fill="#FCB54D"/>
<path d="M435.463 291.766C435.463 296.436 431.677 300.222 427.007 300.222C422.338 300.222 418.552 296.436 418.552 291.766C418.552 287.096 422.338 283.311 427.007 283.311C431.677 283.311 435.463 287.096 435.463 291.766Z" fill="#3AD293"/>
<path d="M435.463 384.778C435.463 389.448 431.677 393.233 427.007 393.233C422.338 393.233 418.552 389.448 418.552 384.778C418.552 380.108 422.338 376.322 427.007 376.322C431.677 376.322 435.463 380.108 435.463 384.778Z" fill="#3AD293"/>
</svg>
